<svg version="1.1" xmlns="http://www.w3.org/2000/svg" xmlns:xlink="http://www.w3.org/1999/xlink" width="500" height="500"><g data-paper-data="{&quot;description&quot;:&quot;Logo for SeT\n============\n\nThis logo was generated by MarkMaker at http://emblemmatic.org/markmaker/ and may be composed of elements designed by others.\n\nThe font is Radley designed by Vernon Adams and released under the OFL license via Google Fonts: https://www.google.com/fonts/specimen/Radley. The font includes this copyright statement: Copyright (c) 2011, Vernon Adams (vern@newtypography.co.uk) with Reserved Font Name 'Radley'. All rights reserved.\n\nMarkMaker uses semantic data from the Princeton University WordNet database http://wordnet.princeton.edu and font descriptions from Google Fonts https://www.google.com/fonts.&quot;}" fill="none" fill-rule="nonzero" stroke="none" stroke-width="none" stroke-linecap="butt" stroke-linejoin="miter" stroke-miterlimit="10" stroke-dasharray="" stroke-dashoffset="0" font-family="none" font-weight="none" font-size="none" text-anchor="none" style="mix-blend-mode: normal"><path d="M50,250c0,-110.45695 89.54305,-200 200,-200c110.45695,0 200,89.54305 200,200c0,110.45695 -89.54305,200 -200,200c-110.45695,0 -200,-89.54305 -200,-200z" fill="#8cc1c1" stroke-width="0"></path><g data-paper-data="{&quot;elementType&quot;:&quot;logo&quot;}" fill="#ffffff" stroke-width="1"><g data-paper-data="{&quot;elementType&quot;:&quot;text&quot;}"><g data-paper-data="{&quot;baseline&quot;:64.794921875,&quot;elementType&quot;:&quot;row&quot;}"><g data-paper-data="{&quot;baselineProportion&quot;:0.9807834441980784,&quot;fontSize&quot;:100,&quot;baseline&quot;:64.794921875,&quot;elementType&quot;:&quot;word&quot;}"><path d="M132.18816,351.93868l3.67385,-0.12454c0.58117,0.9963 1.03781,2.05487 1.36991,3.1757c0.3321,1.12084 0.76798,2.58415 1.30764,4.38994c0.53966,1.80579 1.54634,3.64272 3.02003,5.51078c1.47369,1.86806 3.18608,3.40402 5.13717,4.60788c3.9852,2.49075 8.57232,3.73612 13.76138,3.73612c4.44183,0 8.24022,-1.05857 11.39517,-3.1757c3.69461,-2.44923 5.54191,-5.74947 5.54191,-9.90072c0,-5.14754 -4.67015,-10.35736 -14.01045,-15.62944c-2.61528,-1.49445 -5.30322,-3.02003 -8.06379,-4.57675c-2.76058,-1.55672 -5.45889,-3.1757 -8.09493,-4.85696c-2.63604,-1.68125 -4.99187,-3.51818 -7.0675,-5.51078c-4.60788,-4.44183 -6.91182,-9.25728 -6.91182,-14.44633c0,-7.09863 3.03041,-12.516 9.09123,-16.25213c5.14754,-3.11343 11.45744,-4.67015 18.92968,-4.67015c8.26098,0 16.1691,1.93033 23.72437,5.79099l0.80949,17.74657h-3.86066c-0.53966,-0.9963 -0.97554,-2.03411 -1.30764,-3.11343c-0.3321,-1.07932 -0.77836,-2.4181 -1.33878,-4.01633c-0.56042,-1.59823 -1.49445,-3.1757 -2.80209,-4.73242c-1.30764,-1.55672 -2.81247,-2.85398 -4.51448,-3.89179c-3.321,-1.9926 -7.22317,-2.9889 -11.70651,-2.9889c-3.77763,0 -6.78729,0.65382 -9.02896,1.96146c-2.24167,1.30764 -3.86066,2.64642 -4.85696,4.01633c-0.9963,1.36991 -1.49445,3.03041 -1.49445,4.98149c0,1.95109 0.64344,3.77763 1.93033,5.47964c1.28689,1.70201 2.96814,3.33137 5.04376,4.88809c2.07562,1.55672 4.45221,3.0823 7.12976,4.57675c2.67755,1.49445 5.41738,3.03041 8.21947,4.60788c2.80209,1.57747 5.54191,3.23797 8.21947,4.98149c2.67755,1.74352 5.05414,3.6531 7.12976,5.72872c4.64939,4.64939 6.97409,9.71391 6.97409,15.19356c0,7.6798 -3.19646,13.57457 -9.58938,17.68431c-5.43813,3.57007 -12.20466,5.35511 -20.29959,5.35511c-7.47224,0 -14.63314,-1.20386 -21.48269,-3.61158c-2.28318,-0.83025 -4.27578,-1.76428 -5.97779,-2.80209z" data-paper-data="{&quot;elementType&quot;:&quot;letter&quot;,&quot;baseline&quot;:64.794921875,&quot;baselineProportion&quot;:0.9807834441980784,&quot;fontSize&quot;:100}"></path><path d="M261.89332,364.82829l1.80579,1.74352c-1.53596,3.61158 -4.52486,6.47594 -8.96669,8.59308c-4.06822,1.95109 -8.18833,2.92663 -12.36033,2.92663c-4.172,0 -7.92888,-0.70571 -11.27063,-2.11714c-3.34175,-1.41142 -6.23725,-3.40402 -8.68648,-5.97779c-5.14754,-5.39662 -7.72132,-12.39147 -7.72132,-20.98455c0,-8.63459 2.78133,-15.837 8.344,-21.60723c5.23057,-5.47964 11.60273,-8.21947 19.11648,-8.21947c5.97779,0 10.98004,1.78504 15.00675,5.35511c3.9852,3.48705 6.39292,8.05342 7.22317,13.69911c0.45664,2.11714 0.68496,3.88141 0.68496,5.29284v0.56042h-39.35381c-0.04151,0.3321 -0.06227,0.64344 -0.06227,0.93403c0,0.29059 0,0.58117 0,0.87176c0,7.76283 2.07562,13.69911 6.22687,17.80884c3.77763,3.73612 8.47892,5.60418 14.10386,5.60418c5.62494,0 10.92815,-1.49445 15.90965,-4.48334zM252.73982,338.86225c-0.62269,-10.3366 -4.62864,-15.5049 -12.01786,-15.5049c-4.02671,0 -7.3477,1.68125 -9.96299,5.04376c-2.44923,3.07192 -3.9852,7.07787 -4.60788,12.01786l21.98084,-0.56042c1.95109,-0.08302 3.48705,-0.41512 4.60788,-0.9963" data-paper-data="{&quot;elementType&quot;:&quot;letter&quot;,&quot;baseline&quot;:45.21484375,&quot;baselineProportion&quot;:0.9788583509513742,&quot;fontSize&quot;:100}"></path><path d="M342.21942,300.31794l-8.344,0.06227h-1.1831v61.45919c0,4.56637 1.26613,7.65905 3.79839,9.27803c1.74352,1.07932 5.1683,1.90957 10.27433,2.49075v2.24167c0,0.3321 -0.04151,0.6642 -0.12454,0.9963h-41.22187l-0.12454,-3.23797c1.6605,-0.58117 3.33137,-1.10008 5.01263,-1.55672c1.68125,-0.45664 3.18608,-1.05857 4.51448,-1.80579c2.9889,-1.6605 4.48334,-4.46259 4.48334,-8.40627v-61.45919h-9.09123c-3.73612,0 -6.60048,0.14529 -8.59308,0.43588c-1.9926,0.29059 -3.60121,1.00668 -4.82582,2.14827c-1.22462,1.14159 -2.34545,2.45961 -3.36251,3.95406c-1.01706,1.49445 -1.97184,3.04079 -2.86436,4.63902c-0.89252,1.59823 -1.81617,2.97852 -2.77096,4.14087h-2.86436l1.55672,-20.29959c10.58568,0.41512 24.6584,0.62269 42.21816,0.62269c17.55977,0 29.93048,-0.24907 37.11213,-0.74722l1.9926,20.4864h-2.9889c-0.95479,-1.16235 -1.85768,-2.54264 -2.70869,-4.14087c-0.85101,-1.59823 -1.77466,-3.14457 -2.77096,-4.63902c-2.40772,-3.6531 -4.89847,-5.68721 -7.47224,-6.10233c-2.36621,-0.37361 -5.58342,-0.56042 -9.65165,-0.56042z" data-paper-data="{&quot;elementType&quot;:&quot;letter&quot;,&quot;baseline&quot;:63.96484375,&quot;baselineProportion&quot;:1,&quot;fontSize&quot;:100}"></path></g></g></g></g><g data-paper-data="{&quot;elementType&quot;:&quot;emblem&quot;}" fill="#ffffff" stroke-width="1"><g data-paper-data="{&quot;baselineProportion&quot;:0.9807834441980784,&quot;fontSize&quot;:100,&quot;baseline&quot;:64.794921875,&quot;elementType&quot;:&quot;word&quot;}"><path d="M155.75052,226.92653l6.70778,-0.22738c1.06112,1.81906 1.89485,3.75181 2.5012,5.79825c0.60635,2.04644 1.40219,4.71818 2.38751,8.01522c0.98532,3.29704 2.82333,6.65093 5.51402,10.06166c2.69069,3.41073 5.8172,6.21511 9.37952,8.41314c7.27623,4.54764 15.65148,6.82147 25.12574,6.82147c8.10997,0 15.04512,-1.93275 20.80547,-5.79825c6.74567,-4.47185 10.11851,-10.49748 10.11851,-18.07689c0,-9.39847 -8.52683,-18.91062 -25.5805,-28.53647c-4.77503,-2.72859 -9.68269,-5.51402 -14.723,-8.3563c-5.04031,-2.84228 -9.96692,-5.79825 -14.77984,-8.86791c-4.81292,-3.06966 -9.11424,-6.42355 -12.90394,-10.06166c-8.41314,-8.10997 -12.61971,-16.90208 -12.61971,-26.37634c0,-12.96079 5.53297,-22.85191 16.5989,-29.67338c9.39847,-5.68456 20.91916,-8.52683 34.5621,-8.52683c15.08302,0 29.52179,3.52442 43.31631,10.57327l1.47798,32.40197h-7.04885c-0.98532,-1.81906 -1.78116,-3.71391 -2.38751,-5.68456c-0.60635,-1.97065 -1.42114,-4.415 -2.44436,-7.33308c-1.02322,-2.91807 -2.72859,-5.79825 -5.1161,-8.64052c-2.38751,-2.84228 -5.13505,-5.21084 -8.24261,-7.10569c-6.06353,-3.63812 -13.18817,-5.45717 -21.37393,-5.45717c-6.89726,0 -12.39233,1.19376 -16.48521,3.58127c-4.09288,2.38751 -7.04885,4.83187 -8.86791,7.33308c-1.81906,2.5012 -2.72859,5.53297 -2.72859,9.09529c0,3.56232 1.17481,6.89726 3.52442,10.00482c2.34962,3.10756 5.41928,6.08247 9.20898,8.92475c3.7897,2.84228 8.12891,5.62771 13.01763,8.3563c4.88872,2.72859 9.89113,5.53297 15.00723,8.41314c5.1161,2.88017 10.11851,5.91194 15.00723,9.09529c4.88872,3.18335 9.22793,6.66988 13.01763,10.45958c8.48894,8.48894 12.7334,17.73581 12.7334,27.74063c0,14.0219 -5.83614,24.78466 -17.50843,32.28828c-9.92902,6.51829 -22.28346,9.77744 -37.0633,9.77744c-13.64293,0 -26.71741,-2.19803 -39.22343,-6.59408c-4.16867,-1.51588 -7.80679,-3.22125 -10.91435,-5.1161z" data-paper-data="{&quot;elementType&quot;:&quot;letter&quot;,&quot;baseline&quot;:64.794921875,&quot;baselineProportion&quot;:0.9807834441980784,&quot;fontSize&quot;:100}"></path><path d="M328.5601,232.20545c4.24447,0 7.95838,2.72992 11.14173,8.18977c3.03176,5.06035 4.54764,11.3192 4.54764,18.77655c0,7.32419 -1.51588,13.64962 -4.54764,18.9763c-3.10756,5.45985 -6.82147,8.18977 -11.14173,8.18977c-4.16867,0 -7.84469,-2.66334 -11.02804,-7.99002c-3.03176,-5.19351 -4.54764,-10.58678 -4.54764,-16.17979c0,-5.59301 0.39792,-10.02082 1.19376,-13.28341c0.79584,-3.26259 1.9138,-6.09239 3.35389,-8.4894c3.18335,-5.45985 6.85936,-8.18977 11.02804,-8.18977z" data-paper-data="{&quot;elementType&quot;:&quot;letter&quot;,&quot;baseline&quot;:12.255859375,&quot;baselineProportion&quot;:0.9261992619926199,&quot;fontSize&quot;:100}"></path></g></g></g></svg>